Coordinates
version=1
nRows=5
nColumns=42
inDegrees=yes

Units are S.I. units (second, meters, Newtons, ...)
If the header above contains a line with 'inDegrees', this indicates whether rotational values are in degrees (yes) or radians (no).

endheader
time	pelvis_tilt	pelvis_list	pelvis_rotation	pelvis_tx	pelvis_ty	pelvis_tz	hip_flexion_r	hip_adduction_r	hip_rotation_r	knee_angle_r	knee_adduction_r	knee_angle_r_beta	ankle_angle_r	subtalar_angle_r	mtp_angle_r	hip_flexion_l	hip_adduction_l	hip_rotation_l	knee_angle_l	knee_adduction_l	knee_angle_l_beta	ankle_angle_l	subtalar_angle_l	mtp_angle_l	lumbar_extension	lumbar_bending	lumbar_rotation	arm_flex_r	arm_add_r	arm_rot_r	elbow_flex_r	pro_sup_r	wrist_flex_r	wrist_dev_r	arm_flex_l	arm_add_l	arm_rot_l	elbow_flex_l	pro_sup_l	wrist_flex_l	wrist_dev_l
      1.65000000	      7.26192542	     -0.53807408	      0.44702924	      0.94619322	      1.00294251	     -0.22474837	     17.66563942	     -5.29765036	     -7.95315925	     20.25646934	      8.63851994	      0.35354208	      1.53692111	     -7.35043278	     -7.50888951	    -19.35993857	     -3.63082443	      1.03752063	      6.15732824	     12.31601614	      0.10746565	     13.76196194	      0.45578650	     -7.50888951	    -14.58731772	     -0.45758624	     -3.90189501	    -16.68505195	     -7.30475980	    -12.24387022	     17.81175280	     90.00000001	      0.00000000	      0.00000000	     15.78077251	    -22.07489041	      0.42596318	     43.31790438	     90.00000001	      0.00000000	      0.00000000
      1.66000000	      7.13599055	     -0.40064150	      0.74481468	      0.96025611	      0.99981443	     -0.22476115	     17.61333975	     -5.40509871	     -9.08044793	     16.76347927	      8.76121877	      0.29257791	      1.93547358	     -5.72531092	     -7.50859021	    -19.99845249	     -3.60301197	      1.11729423	      6.36432928	     12.30722138	      0.11107850	     14.38168033	      0.87344236	     -7.50859021	    -14.45034829	     -0.45257488	     -4.25302965	    -17.48135022	     -7.06979891	    -12.40366435	     17.79676657	     90.00000001	      0.00000000	      0.00000000	     16.56839707	    -22.60689241	      0.99888634	     44.26360014	     90.00000001	      0.00000000	      0.00000000
      1.67000000	      7.02801556	     -0.27920206	      1.06501018	      0.97454539	      0.99664103	     -0.22473546	     17.56764158	     -5.53319887	    -10.28314927	     13.65220677	      9.00637508	      0.23827596	      2.25056950	     -4.01646545	     -7.50825476	    -20.66623705	     -3.62526848	      1.16927748	      6.58739508	     12.31558018	      0.11497173	     14.95484590	      1.32942851	     -7.50825476	    -14.32044217	     -0.42486934	     -4.63186788	    -18.23848894	     -6.86140415	    -12.62915779	     17.83794219	     90.00000001	      0.00000000	      0.00000000	     17.26748624	    -23.12815420	      1.52997301	     45.17740622	     90.00000001	      0.00000000	      0.00000000
      1.68000000	      6.56839238	      0.06592542	      1.26566612	      0.98878237	      0.99303869	     -0.22491433	     18.05846870	     -5.98479176	    -11.08609613	     11.13805053	      9.52366414	      0.19439565	      2.41454069	     -2.77207314	     -7.50812303	    -20.88856669	     -3.27976468	      1.30585293	      6.94716068	     12.16949261	      0.12125083	     15.43007323	      1.50219803	     -7.50812303	    -13.80545370	     -0.63771118	     -4.95634127	    -18.99156726	     -6.71225853	    -12.78760642	     17.95373998	     90.00000001	      0.00000000	      0.00000000	     17.87984788	    -23.50324434	      1.77925530	     45.92532378	     90.00000001	      0.00000000	      0.00000000
      1.69000000	      6.65137223	      0.13692158	      1.67276947	      1.00341543	      0.99011081	     -0.22496939	     17.84181272	     -6.12766505	    -12.12222620	      8.88511304	      9.97307193	      0.15507448	      2.82677366	     -1.35544081	     -7.50790011	    -21.72145103	     -3.42788007	      1.50833889	      7.27202083	     12.22143634	      0.12692071	     15.89157425	      1.87464986	     -7.50790011	    -13.88476130	     -0.52519852	     -5.39829989	    -19.57460203	     -6.56997886	    -13.07469702	     17.94494091	     90.00000001	      0.00000000	      0.00000000	     18.40897038	    -24.00647429	      2.32806037	     46.87678550	     90.00000001	      0.00000000	      0.00000000
